# xmcd CD database file
#
# Track frame offsets:
#	183
#	22068
#	33430
#	44375
#	82933
#	107158
#	129395
#	142780
#	166048
#	188338
#	214828
#	236640
#	272725
#	283733
#	307775
#
# Disc length: 4270 seconds
#
# Revision: 0
# Processed by: cddbd v1.5.2PL0 Copyright (c) Steve Scherf et al.
# Submitted via: CDex 1.51
#
DISCID=c110ac0f
DTITLE=Various Artist - A Spoonful Of Blues
DYEAR=1992
DGENRE=Blues
TTITLE0=Muddy Waters-Hoochie Coochie Man
TTITLE1=Lightnin' Hopkins-Sometimes She Will
TTITLE2=Howlin' Wolf-Red Roosters
TTITLE3=Eddie Clearwater-Came Up The Hardway
TTITLE4=Houn Dog Taylor-Wild About You Baby
TTITLE5=Jimmy Rodgers-Sloppy Drunk
TTITLE6=Cub Koda and The Houserockers-Tough Times
TTITLE7=Paul Orta-Teardrops
TTITLE8=J B Hutto-Shattle, Rattle and Roll
TTITLE9=Luther Snake Boy Johnson-Woman You Don't Have To Go
TTITLE10=Left Hand Frank-Honky Tonk (Instrumental)
TTITLE11=Professor Longhair-Every Day I Have The Blues
TTITLE12=Clarence Edwards-I Want Somebody
TTITLE13=Short Fuse-That's All Right
TTITLE14=Lowell Fulson-It's A Long Time
EXTD=YEAR: 1992
EXTT0=
EXTT1=
EXTT2=
EXTT3=
EXTT4=
EXTT5=
EXTT6=
EXTT7=
EXTT8=
EXTT9=
EXTT10=
EXTT11=
EXTT12=
EXTT13=
EXTT14=
PLAYORDER=
